:SAMPLES-PER-SECOND 30
:FULLY-SPECIFIED
:DEGREES
88
root  10.15971176 37.60755644 -12.50582192 -1.452590108 -47.06340027 0.262701869
lfemur  -24.49759674 1.80063045 -4.572333813
ltibia  -1.491570742e-006 -8.364404493e-007 65.86739349
lfoot  5.521815751e-007 -16.44499397 -1.663909435
ltoes  -4.250644065 -19.5611806 -102.515957
rfemur  -11.24899673 12.32699966 9.080569267
rtibia  -8.727266732e-007 2.533748784e-007 53.80998993
rfoot  -2.316020982e-006 -31.18489265 -7.167158127
rtoes  5.373923086 19.29304026 -105.8922705
lowerback  8.971679688 0.5462819934 -1.620219946
upperback  2.425019979 0.5597140193 0.4531109929
thorax  -2.535290003 0.2697409987 1.318619967
rclavicle  0 -9.442270133e-015 7.951389973e-016
rhumerus  15.4684 11.82669926 -72.89050293
rradius  -7.782816926e-012 0.001642658608 145.8040009
rwrist  0.002739921212 0.003270594636 -18.12899971
rthumb  -92.93752616 -24.25625642 -97.11982154
rhand  -7.920061211e-032 -33.2840004 9.303460121
rfingers  -90 -7.125020027 -90
lclavicle  0 -9.442270133e-015 7.951389973e-016
lhumerus  8.577598572 -8.515339851 68.68090057
lradius  1.032090038e-011 -0.001505991793 143.3200073
lwrist  1.816137865e-011 1.409039812e-011 6.039390087
lthumb  89.89689403 5.08795885 91.16245106
lhand  -1.496451383e-031 -27.76390076 20.11240005
lfingers  90 7.125020027 -90
lowerneck  -4.580249786 4.913090229 -6.345429897
upperneck  30.85919952 5.81248951 5.732800484
head  10.15779972 2.384490013 3.661629915
89
root  10.20622253 37.5531114 -12.55966697 -1.256379962 -46.97529984 0.1638709903
lfemur  -25.3076992 2.037339926 -4.169120789
ltibia  -1.491570742e-006 -8.364404493e-007 66.62059784
lfoot  5.521815751e-007 -15.43329811 -2.791969776
ltoes  -4.250644065 -19.5611806 -102.515957
rfemur  -11.54939842 11.96170044 9.080008507
rtibia  -8.727266732e-007 2.533748784e-007 53.94299698
rfoot  -2.316020982e-006 -31.52129745 -7.075039864
rtoes  5.373923086 19.29304026 -105.8922705
lowerback  8.983929634 0.55418998 -1.752400041
upperback  2.50948 0.559171021 0.5173239708
thorax  -2.456409931 0.2679890096 1.459730029
rclavicle  0 -9.442270133e-015 7.951389973e-016
rhumerus  14.44759846 12.06129932 -72.95510101
rradius  -7.782817793e-012 0.001642658608 145.8410034
rwrist  0.002739921212 0.003270594636 -17.93709946
rthumb  -92.93752616 -24.25625642 -97.11982154
rhand  -7.920061211e-032 -33.2840004 9.303460121
rfingers  -90 -7.125020027 -90
lclavicle  0 -9.442270133e-015 7.951389973e-016
lhumerus  7.668039799 -8.725060463 69.26860046
lradius  1.032090038e-011 -0.001435876242 143.5310059
lwrist  1.816137865e-011 1.409039812e-011 5.734769821
lthumb  89.89689403 5.08795885 91.16245106
lhand  -1.496451383e-031 -27.76390076 20.11240005
lfingers  90 7.125020027 -90
lowerneck  -4.656350136 4.759190083 -6.578340054
upperneck  31.45910072 5.676920414 5.50109911
head  10.41320038 2.245970011 3.635970116
90
root  10.26542243 37.51111068 -12.59868952 -1.168059826 -46.88949966 0.1582549363
lfemur  -26.12509727 2.235479832 -3.781938553
ltibia  -1.491570742e-006 -8.364404493e-007 67.30580139
lfoot  5.521815751e-007 -14.01839924 -4.24147892
ltoes  -4.250644065 -19.5611806 -102.515957
rfemur  -11.74950218 11.80499935 9.04001236
rtibia  -8.727266732e-007 2.533748784e-007 53.96649933
rfoot  -2.316020982e-006 -31.73169899 -7.259268761
rtoes  5.373923086 19.29304026 -105.8922705
lowerback  8.96914959 0.5340999961 -1.810060024
upperback  2.655309916 0.5247799754 0.4666799903
thorax  -2.296060085 0.2474659979 1.444149971
rclavicle  0 -9.442270133e-015 7.951389973e-016
rhumerus  13.34020138 12.332901 -73.20619965
rradius  -7.782816926e-012 0.001642658608 145.7640076
rwrist  0.002739921212 0.003270594636 -17.80130005
rthumb  -92.93752616 -24.25625642 -97.11982154
rhand  -7.920061211e-032 -33.2840004 9.303460121
rfingers  -90 -7.125020027 -90
lclavicle  0 -9.442270133e-015 7.951389973e-016
lhumerus  6.920289993 -8.864150047 69.69400024
lradius  1.032090125e-011 -0.001365066506 143.6390076
lwrist  1.816137865e-011 1.409039812e-011 5.411409855
lthumb  89.89689403 5.08795885 91.16245106
lhand  -1.496451383e-031 -27.76390076 20.11240005
lfingers  90 7.125020027 -90
lowerneck  -4.394929886 4.68708992 -6.701479912
upperneck  31.67639923 5.635009766 5.222719669
head  10.45860004 2.168179989 3.552830219
91
root  10.33448873 37.5042232 -12.6257994 -1.082560062 -46.86029816 0.06872981787
lfemur  -26.88329887 2.473720312 -3.296733618
ltibia  -1.491570742e-006 -8.364404493e-007 67.87168884
lfoot  5.521815751e-007 -12.24969482 -5.758240223
ltoes  -4.250644065 -19.5611806 -102.515957
rfemur  -11.80589771 11.8835001 9.085558891
rtibia  -8.727266732e-007 2.533748784e-007 53.8313942
rfoot  -2.316020982e-006 -31.8021946 -7.645858765
rtoes  5.373923086 19.29304026 -105.8922705
lowerback  8.996029854 0.5281249881 -1.664289951
upperback  2.872809887 0.5226759911 0.3115170002
thorax  -2.08333993 0.2415509969 1.202600002
rclavicle  0 -9.442270133e-015 7.951389973e-016
rhumerus  12.40849972 12.38300037 -73.66390228
rradius  -7.782816926e-012 0.001642658608 145.5899963
rwrist  0.002739921212 0.003270594636 -17.77260017
rthumb  -92.93752616 -24.25625642 -97.11982154
rhand  -7.920061211e-032 -33.2840004 9.303460121
rfingers  -90 -7.125020027 -90
lclavicle  0 -9.442270133e-015 7.951389973e-016
lhumerus  6.442670822 -8.974459648 69.94290161
lradius  1.032090038e-011 -0.001293523237 143.6439972
lwrist  1.816137865e-011 1.409039812e-011 5.11398983
lthumb  89.89689403 5.08795885 91.16245106
lhand  -1.496451383e-031 -27.76390076 20.11240005
lfingers  90 7.125020027 -90
lowerneck  -4.002560139 4.639490128 -6.73555994
upperneck  31.71610069 5.584640026 5.019711018
head  10.41049957 2.111129999 3.468620062
92
root  10.40868909 37.53511023 -12.62779987 -1.418259859 -46.87269974 0.386920929
lfemur  -27.46179771 2.676179647 -3.172059536
ltibia  -1.491570742e-006 -8.364404493e-007 68.29060364
lfoot  5.521815751e-007 -10.33979988 -7.205029488
ltoes  -4.250644065 -19.5611806 -102.515957
rfemur  -11.62269592 12.05570126 8.82410717
rtibia  -8.727266732e-007 2.533748784e-007 53.53349686
rfoot  -2.316020982e-006 -31.81399918 -7.994210243
rtoes  5.373923086 19.29304026 -105.8922705
lowerback  9.144060135 0.5290489793 -1.791169882
upperback  3.077179909 0.5016850233 0.100198999
thorax  -1.952080011 0.2271579951 1.057790041
rclavicle  0 -9.442270133e-015 7.951389973e-016
rhumerus  11.54490185 12.38409996 -74.21150208
rradius  -7.782816926e-012 0.001642658608 145.397995
rwrist  0.002739921212 0.003270594636 -18.27779961
rthumb  -92.93752616 -24.25625642 -97.11982154
rhand  -7.920061211e-032 -33.2840004 9.303460121
rfingers  -90 -7.125020027 -90
lclavicle  0 -9.442270133e-015 7.951389973e-016
lhumerus  5.965120316 -8.996520042 70.20330048
lradius  1.032090038e-011 -0.00122120732 143.5540009
lwrist  1.816137865e-011 1.409039812e-011 5.096109867
lthumb  89.89689403 5.08795885 91.16245106
lhand  -1.496451383e-031 -27.76390076 20.11240005
lfingers  90 7.125020027 -90
lowerneck  -3.400710106 4.622769833 -6.865139961
upperneck  31.75860023 5.569069862 4.811859131
head  10.31849957 2.056329966 3.39460969
93
root  10.49042199 37.58466525 -12.59984444 -1.910980105 -46.95299911 0.8901038766
lfemur  -27.93579674 2.956530094 -3.203611612
ltibia  -1.491570742e-006 -8.364404493e-007 68.62029266
lfoot  5.521815751e-007 -8.189987183 -8.82999897
ltoes  -4.250644065 -19.5611806 -102.515957
rfemur  -11.34599686 12.3118 8.407780647
rtibia  -8.727266732e-007 2.533748784e-007 53.11069107
rfoot  -2.316020982e-006 -31.71159363 -8.389567375
rtoes  5.373923086 19.29304026 -105.8922705
lowerback  9.237819672 0.5454890132 -1.956760049
upperback  3.266520023 0.4981729984 -0.1511210054
thorax  -1.806849957 0.2214570045 0.891858995
rclavicle  0 -9.442270133e-015 7.951389973e-016
rhumerus  10.69219875 12.27799988 -74.80639648
rradius  -7.782817793e-012 0.001642658608 145.1779938
rwrist  0.002739921212 0.003270594636 -19.17160034
rthumb  -92.93752616 -24.25625642 -97.11982154
rhand  -7.920061211e-032 -33.2840004 9.303460121
rfingers  -90 -7.125020027 -90
lclavicle  0 -9.442270133e-015 7.951389973e-016
lhumerus  5.612920761 -8.703889847 70.45700073
lradius  1.032090038e-011 -0.001148079289 143.2489929
lwrist  1.816137865e-011 1.409039812e-011 5.63270998
lthumb  89.89689403 5.08795885 91.16245106
lhand  -1.496451383e-031 -27.76390076 20.11240005
lfingers  90 7.125020027 -90
lowerneck  -2.55527997 4.622960091 -7.089509964
upperneck  31.75300026 5.547780037 4.651150227
head  10.15789986 1.993119955 3.343209743
94
root  10.58191089 37.6542189 -12.55437746 -2.036230087 -47.16790009 1.079300046
lfemur  -28.49169922 3.467199326 -2.984387398
ltibia  -1.491570742e-006 -8.364404493e-007 68.8710022
lfoot  5.521815751e-007 -5.881663322 -10.62170029
ltoes  -4.250644065 -19.5611806 -102.515957
rfemur  -11.23590279 12.64449978 8.180430412
rtibia  -8.727266732e-007 2.533748784e-007 52.61670303
rfoot  -2.316020982e-006 -31.4274025 -8.757761002
rtoes  5.373923086 19.29304026 -105.8922705
lowerback  9.151089668 0.5792490244 -1.868909955
upperback  3.440069914 0.5469350219 -0.3428789973
thorax  -1.578590035 0.2424740046 0.6407650113
rclavicle  0 -9.442270133e-015 7.951389973e-016
rhumerus  9.973641396 12.18320084 -75.35949707
rradius  -7.782816926e-012 0.001642658608 144.8079987
rwrist  0.002739921212 0.003270594636 -19.79360008
rthumb  -92.93752616 -24.25625642 -97.11982154
rhand  -7.920061211e-032 -33.2840004 9.303460121
rfingers  -90 -7.125020027 -90
lclavicle  0 -9.442270133e-015 7.951389973e-016
lhumerus  5.431358814 -8.075260162 70.646698
lradius  1.032090038e-011 -0.001074099797 142.7579956
lwrist  1.816137865e-011 1.409039812e-011 6.31441021
lthumb  89.89689403 5.08795885 91.16245106
lhand  -1.496451383e-031 -27.76390076 20.11240005
lfingers  90 7.125020027 -90
lowerneck  -1.572739959 4.673089981 -7.305490017
upperneck  31.68109894 5.597520351 4.412899971
head  9.948010445 1.957440019 3.26184988
95
root  10.68951089 37.74666674 -12.49659981 -2.00916028 -47.50519943 1.13097024
lfemur  -29.03469849 4.031419754 -2.679409027
ltibia  -1.491570742e-006 -8.364404493e-007 69.01519775
lfoot  5.521815751e-007 -3.602251053 -12.42289925
ltoes  -4.250644065 -19.5611806 -102.515957
rfemur  -11.24669743 12.94709969 8.014389038
rtibia  -8.727266732e-007 2.533748784e-007 52.09959793
rfoot  -2.316020982e-006 -30.93659973 -9.16821003
rtoes  5.373923086 19.29304026 -105.8922705
lowerback  9.109689713 0.6520969868 -1.68900001
upperback  3.557590008 0.6546959877 -0.5259050131
thorax  -1.433099985 0.295273006 0.3407610059
rclavicle  0 -9.442270133e-015 7.951389973e-016
rhumerus  9.34239006 12.0951004 -75.89240265
rradius  -7.782817793e-012 0.001642658608 144.352005
rwrist  0.002739921212 0.003270594636 -20.28230095
rthumb  -92.93752616 -24.25625642 -97.11982154
rhand  -7.920061211e-032 -33.2840004 9.303460121
rfingers  -90 -7.125020027 -90
lclavicle  0 -9.442270133e-015 7.951389973e-016
lhumerus  5.276329041 -7.539380074 70.83049774
lradius  1.032090038e-011 -0.0009992298437 142.2169952
lwrist  1.816137865e-011 1.409039812e-011 6.684790134
lthumb  89.89689403 5.08795885 91.16245106
lhand  -1.496451383e-031 -27.76390076 20.11240005
lfingers  90 7.125020027 -90
lowerneck  -0.6281599998 4.754350185 -7.473380089
upperneck  31.79210281 5.659249306 4.239409924
head  9.813879967 1.932420135 3.204289913
